<svg id="eco4zq2nqz81" xmlns="http://www.w3.org/2000/svg" xmlns:xlink="http://www.w3.org/1999/xlink" viewBox="0 0 2400 1920" shape-rendering="geometricPrecision" text-rendering="geometricPrecision"><style><![CDATA[#eco4zq2nqz810 {animation: eco4zq2nqz810_c_o 2100ms linear infinite normal forwards}@keyframes eco4zq2nqz810_c_o { 0% {opacity: 0} 28.571429% {opacity: 0} 57.142857% {opacity: 1} 85.714286% {opacity: 0} 100% {opacity: 0} }#eco4zq2nqz823 {animation: eco4zq2nqz823_c_o 2100ms linear infinite normal forwards}@keyframes eco4zq2nqz823_c_o { 0% {opacity: 0} 14.285714% {opacity: 0} 42.857143% {opacity: 1} 71.428571% {opacity: 0} 100% {opacity: 0} }#eco4zq2nqz840 {animation: eco4zq2nqz840_c_o 2100ms linear infinite normal forwards}@keyframes eco4zq2nqz840_c_o { 0% {opacity: 0} 28.571429% {opacity: 1} 57.142857% {opacity: 0} 100% {opacity: 0} }#eco4zq2nqz857 {animation: eco4zq2nqz857_c_o 2100ms linear infinite normal forwards}@keyframes eco4zq2nqz857_c_o { 0% {opacity: 0} 42.857143% {opacity: 0} 71.428571% {opacity: 1} 100% {opacity: 0} }]]></style><g id="eco4zq2nqz82" transform="matrix(0.71226901302046 0 0 0.71226901302046 1050.95403220678963 857.15359368424754)"><g id="eco4zq2nqz83" transform="matrix(1.33333000000000 0 0 1.33333000000000 -53 -132)"><g id="eco4zq2nqz84"><g id="eco4zq2nqz85"><g id="eco4zq2nqz86"><g id="eco4zq2nqz87" clip-path="url(#eco4zq2nqz811)"><g id="eco4zq2nqz88" opacity="0.8"><g id="eco4zq2nqz89"><path id="eco4zq2nqz810" d="M353.438000,315.590000L276.313000,315.590000L136.008000,99L213.160000,99Z" transform="matrix(1 0 0 1 0.19575908439768 0.00000000000003)" opacity="0" fill="rgb(5,224,219)" stroke="none" stroke-width="1"/></g></g><clipPath id="eco4zq2nqz811"><path id="eco4zq2nqz812" d="M0,0L402,0L402,402L0,402Z" fill="rgb(0,0,0)" stroke="none" stroke-width="1"/></clipPath></g></g></g></g><g id="eco4zq2nqz813"><g id="eco4zq2nqz814" clip-path="url(#eco4zq2nqz828)"><g id="eco4zq2nqz815"><g id="eco4zq2nqz816" clip-path="url(#eco4zq2nqz826)"><g id="eco4zq2nqz817"><g id="eco4zq2nqz818"><g id="eco4zq2nqz819"><g id="eco4zq2nqz820" clip-path="url(#eco4zq2nqz824)"><g id="eco4zq2nqz821" opacity="0.6"><g id="eco4zq2nqz822"><path id="eco4zq2nqz823" d="M262.063000,315.590000L184.941000,315.590000L44.637000,99L121.785000,99Z" opacity="0" fill="rgb(5,224,219)" stroke="none" stroke-width="1"/></g></g><clipPath id="eco4zq2nqz824"><path id="eco4zq2nqz825" d="M0,0L402,0L402,402L0,402Z" fill="rgb(0,0,0)" stroke="none" stroke-width="1"/></clipPath></g></g></g></g><clipPath id="eco4zq2nqz826"><path id="eco4zq2nqz827" d="M299.188000,315.590000L222.066000,315.590000L81.758000,99L158.910000,99Z" fill="rgb(0,0,0)" stroke="none" stroke-width="1"/></clipPath></g></g><clipPath id="eco4zq2nqz828"><path id="eco4zq2nqz829" d="M81,99L263,99L263,316L81,316Z" fill="rgb(0,0,0)" stroke="none" stroke-width="1"/></clipPath></g></g><g id="eco4zq2nqz830"><g id="eco4zq2nqz831" clip-path="url(#eco4zq2nqz845)"><g id="eco4zq2nqz832"><g id="eco4zq2nqz833" clip-path="url(#eco4zq2nqz843)"><g id="eco4zq2nqz834"><g id="eco4zq2nqz835"><g id="eco4zq2nqz836"><g id="eco4zq2nqz837" clip-path="url(#eco4zq2nqz841)"><g id="eco4zq2nqz838" opacity="0.4"><g id="eco4zq2nqz839"><path id="eco4zq2nqz840" d="M257.176000,315.590000L180.055000,315.590000L39.750000,99L116.902000,99Z" opacity="0" fill="rgb(5,224,219)" stroke="none" stroke-width="1"/></g></g><clipPath id="eco4zq2nqz841"><path id="eco4zq2nqz842" d="M0,0L402,0L402,402L0,402Z" fill="rgb(0,0,0)" stroke="none" stroke-width="1"/></clipPath></g></g></g></g><clipPath id="eco4zq2nqz843"><path id="eco4zq2nqz844" d="M208.914000,315.590000L131.793000,315.590000L-8.516000,99L68.637000,99Z" fill="rgb(0,0,0)" stroke="none" stroke-width="1"/></clipPath></g></g><clipPath id="eco4zq2nqz845"><path id="eco4zq2nqz846" d="M39,99L209,99L209,316L39,316Z" fill="rgb(0,0,0)" stroke="none" stroke-width="1"/></clipPath></g></g><g id="eco4zq2nqz847"><g id="eco4zq2nqz848" clip-path="url(#eco4zq2nqz862)"><g id="eco4zq2nqz849"><g id="eco4zq2nqz850" clip-path="url(#eco4zq2nqz860)"><g id="eco4zq2nqz851"><g id="eco4zq2nqz852"><g id="eco4zq2nqz853"><g id="eco4zq2nqz854" clip-path="url(#eco4zq2nqz858)"><g id="eco4zq2nqz855"><g id="eco4zq2nqz856"><path id="eco4zq2nqz857" d="M310.371000,180.969000C310.371000,226.238000,273.672000,262.938000,228.402000,262.938000C183.133000,262.938000,146.434000,226.238000,146.434000,180.969000C146.434000,135.699000,183.133000,99,228.402000,99C273.672000,99,310.371000,135.699000,310.371000,180.969000" opacity="0" fill="rgb(8,205,201)" stroke="none" stroke-width="1"/></g></g><clipPath id="eco4zq2nqz858"><path id="eco4zq2nqz859" d="M0,0L402,0L402,402L0,402Z" fill="rgb(0,0,0)" stroke="none" stroke-width="1"/></clipPath></g></g></g></g><clipPath id="eco4zq2nqz860"><path id="eco4zq2nqz861" d="M524.418000,394.895000L419.059000,394.895000L227.383000,99L332.781000,99Z" fill="rgb(0,0,0)" stroke="none" stroke-width="1"/></clipPath></g></g><clipPath id="eco4zq2nqz862"><path id="eco4zq2nqz863" d="M227,99L402,99L402,395L227,395Z" fill="rgb(0,0,0)" stroke="none" stroke-width="1"/></clipPath></g></g></g></g></svg>